<svg xmlns="http://www.w3.org/2000/svg" viewBox="0 0 192 192">
  <rect width="192" height="192" rx="32" fill="#1a2f6b"/>
  <defs>
    <linearGradient id="ia" x1="96" y1="18" x2="96" y2="162" gradientUnits="userSpaceOnUse">
      <stop offset="0%"   stop-color="#00e8f8"/>
      <stop offset="16%"  stop-color="#18c8e6"/>
      <stop offset="38%"  stop-color="#1255b0"/>
      <stop offset="66%"  stop-color="#e65100"/>
      <stop offset="84%"  stop-color="#ef6c00"/>
      <stop offset="100%" stop-color="#ffb300"/>
    </linearGradient>
    <linearGradient id="ib" x1="96" y1="30" x2="96" y2="162" gradientUnits="userSpaceOnUse">
      <stop offset="0%"   stop-color="#0288d1"/>
      <stop offset="38%"  stop-color="#0d47a1"/>
      <stop offset="70%"  stop-color="#e64a19"/>
      <stop offset="100%" stop-color="#ffa000"/>
    </linearGradient>
    <linearGradient id="ic" x1="96" y1="50" x2="96" y2="158" gradientUnits="userSpaceOnUse">
      <stop offset="0%"   stop-color="#4fc3f7"/>
      <stop offset="42%"  stop-color="#1976d2"/>
      <stop offset="78%"  stop-color="#ff8f00"/>
      <stop offset="100%" stop-color="#ffca28"/>
    </linearGradient>
  </defs>
  <!-- Outer flame -->
  <path d="M96 20 C95 34,79 52,70 74 C58 102,54 130,56 148 C60 160,74 168,96 168 C118 168,132 160,136 148 C138 130,134 102,122 74 C113 52,97 34,96 20Z" fill="url(#ia)"/>
  <!-- Mid flame -->
  <path d="M96 40 C95 52,86 68,80 88 C70 114,68 138,70 150 C74 162,84 168,96 168 C108 168,118 162,122 150 C124 138,122 114,112 88 C106 68,97 52,96 40Z" fill="url(#ib)" opacity="0.9"/>
  <!-- Inner core -->
  <path d="M96 64 C95 74,89 88,85 104 C80 122,80 140,82 150 C86 160,91 165,96 166 C101 165,106 160,110 150 C112 140,112 122,107 104 C103 88,97 74,96 64Z" fill="url(#ic)" opacity="0.88"/>
  <!-- White hot tip -->
  <ellipse cx="96" cy="34" rx="8" ry="18" fill="white" opacity="0.5"/>
</svg>
