<svg xmlns="http://www.w3.org/2000/svg" viewBox="0 0 192 192">
  <rect width="192" height="192" rx="36" fill="#1a2f6b"/>
  <g transform="translate(28,18) scale(1.38)">
    <defs>
      <linearGradient id="iW" x1="80" y1="8" x2="14" y2="88" gradientUnits="userSpaceOnUse">
        <stop offset="0%"   stop-color="#00daf8"/>
        <stop offset="20%"  stop-color="#12b8e2"/>
        <stop offset="48%"  stop-color="#1258c0"/>
        <stop offset="78%"  stop-color="#0e2c98"/>
        <stop offset="100%" stop-color="#081a68"/>
      </linearGradient>
      <linearGradient id="iB" x1="55" y1="48" x2="80" y2="94" gradientUnits="userSpaceOnUse">
        <stop offset="0%"   stop-color="#1868d0"/>
        <stop offset="100%" stop-color="#0c2480"/>
      </linearGradient>
      <linearGradient id="iO" x1="48" y1="46" x2="66" y2="94" gradientUnits="userSpaceOnUse">
        <stop offset="0%"   stop-color="#c01808"/>
        <stop offset="28%"  stop-color="#e84408"/>
        <stop offset="62%"  stop-color="#f48c0c"/>
        <stop offset="100%" stop-color="#f7c400"/>
      </linearGradient>
    </defs>
    <path d="M77 9 C70 7,62 9,54 14 C44 20,36 29,30 39 C23 50,18 62,16 72 C14 81,15 89,19 94 C23 98,30 99,37 97 C44 95,49 89,52 82 C56 73,57 63,60 55 C63 47,69 41,76 37 C83 33,88 25,86 17 C84 13,80 10,77 9 Z" fill="url(#iW)"/>
    <path d="M61 49 C68 52,74 59,77 68 C80 76,77 85,71 90 C66 94,60 95,54 93 C50 91,47 86,49 81 C53 78,58 73,60 66 C62 59,60 52,62 47 C63 46,62 47,61 49 Z" fill="url(#iB)"/>
    <path d="M50 47 C54 51,58 58,59 66 C60 74,57 83,51 88 C47 92,41 94,36 91 C31 88,29 81,31 74 C33 68,39 63,40 56 C41 50,38 44,41 40 C44 37,48 43,50 47 Z" fill="url(#iO)"/>
    <circle cx="46" cy="77" r="10" fill="white"/>
  </g>
</svg>